M48
; DRILL file {KiCad 8.0.2-1} date 2024-07-05T22:00:35-0300
; FORMAT={-:-/ absolute / inch / decimal}
; #@! TF.CreationDate,2024-07-05T22:00:35-03:00
; #@! TF.GenerationSoftware,Kicad,Pcbnew,8.0.2-1
; #@! TF.FileFunction,Plated,1,2,PTH
FMAT,2
INCH
; #@! TA.AperFunction,Plated,PTH,ViaDrill
T1C0.0118
; #@! TA.AperFunction,Plated,PTH,ComponentDrill
T2C0.0394
%
G90
G05
T1
X7.3428Y-4.8956
T2
X5.0209Y-4.0945
X5.0209Y-4.1945
X5.1209Y-4.0945
X5.1209Y-4.1945
X5.2209Y-4.0945
X5.2209Y-4.1945
X5.3209Y-4.0945
X5.3209Y-4.1945
X5.4209Y-4.0945
X5.4209Y-4.1945
X5.5209Y-4.0945
X5.5209Y-4.1945
X5.6209Y-4.0945
X5.6209Y-4.1945
X5.7209Y-4.0945
X5.7209Y-4.1945
X5.8209Y-4.0945
X5.8209Y-4.1945
X5.9209Y-4.0945
X5.9209Y-4.1945
X6.0209Y-4.0945
X6.0209Y-4.1945
X6.1209Y-4.0945
X6.1209Y-4.1945
X6.2209Y-4.0945
X6.2209Y-4.1945
X6.3209Y-4.0945
X6.3209Y-4.1945
X6.4209Y-4.0945
X6.4209Y-4.1945
X6.5209Y-4.0945
X6.5209Y-4.1945
X6.6209Y-4.0945
X6.6209Y-4.1945
X6.7209Y-4.0945
X6.7209Y-4.1945
X6.8209Y-4.0945
X6.8209Y-4.1945
X6.9209Y-4.0945
X6.9209Y-4.1945
X7.0209Y-4.0945
X7.0209Y-4.1945
X7.1209Y-4.0945
X7.1209Y-4.1945
X7.2209Y-4.0945
X7.2209Y-4.1945
X7.3209Y-4.0945
X7.3209Y-4.1945
X7.4209Y-4.0945
X7.4209Y-4.1945
M30
