%TF.GenerationSoftware,KiCad,Pcbnew,8.0.2-1*%
%TF.CreationDate,2024-07-05T22:00:38-03:00*%
%TF.ProjectId,msx-simple-proto,6d73782d-7369-46d7-906c-652d70726f74,0.1*%
%TF.SameCoordinates,Original*%
%TF.FileFunction,Copper,L2,Bot*%
%TF.FilePolarity,Positive*%
%FSLAX46Y46*%
G04 Gerber Fmt 4.6, Leading zero omitted, Abs format (unit mm)*
G04 Created by KiCad (PCBNEW 8.0.2-1) date 2024-07-05 22:00:38*
%MOMM*%
%LPD*%
G01*
G04 APERTURE LIST*
%TA.AperFunction,ConnectorPad*%
%ADD10R,1.500000X8.000000*%
%TD*%
%TA.AperFunction,ComponentPad*%
%ADD11O,1.700000X1.700000*%
%TD*%
%TA.AperFunction,ComponentPad*%
%ADD12R,1.700000X1.700000*%
%TD*%
%TA.AperFunction,ViaPad*%
%ADD13C,0.600000*%
%TD*%
%TA.AperFunction,Conductor*%
%ADD14C,0.200000*%
%TD*%
G04 APERTURE END LIST*
D10*
%TO.P,CART1,1*%
%TO.N,/CS1*%
X188492025Y-129867202D03*
%TO.P,CART1,3*%
%TO.N,/CS12*%
X185952025Y-129867202D03*
%TO.P,CART1,5*%
%TO.N,RSV*%
X183412025Y-129867202D03*
%TO.P,CART1,7*%
%TO.N,/WAIT*%
X180872025Y-129867202D03*
%TO.P,CART1,9*%
%TO.N,/M1*%
X178332025Y-129867202D03*
%TO.P,CART1,11*%
%TO.N,/IORQ*%
X175792025Y-129867202D03*
%TO.P,CART1,13*%
%TO.N,/WR*%
X173252025Y-129867202D03*
%TO.P,CART1,15*%
%TO.N,/RESET*%
X170712025Y-129867202D03*
%TO.P,CART1,17*%
%TO.N,A9*%
X168172025Y-129867202D03*
%TO.P,CART1,19*%
%TO.N,A11*%
X165632025Y-129867202D03*
%TO.P,CART1,21*%
%TO.N,A7*%
X163092025Y-129867202D03*
%TO.P,CART1,23*%
%TO.N,A12*%
X160552025Y-129867202D03*
%TO.P,CART1,25*%
%TO.N,A14*%
X158012025Y-129867202D03*
%TO.P,CART1,27*%
%TO.N,A1*%
X155472025Y-129867202D03*
%TO.P,CART1,29*%
%TO.N,A3*%
X152932025Y-129867202D03*
%TO.P,CART1,31*%
%TO.N,A5*%
X150392025Y-129867202D03*
%TO.P,CART1,33*%
%TO.N,D1*%
X147852025Y-129867202D03*
%TO.P,CART1,35*%
%TO.N,D3*%
X145312025Y-129867202D03*
%TO.P,CART1,37*%
%TO.N,D5*%
X142772025Y-129867202D03*
%TO.P,CART1,39*%
%TO.N,D7*%
X140232025Y-129867202D03*
%TO.P,CART1,41*%
%TO.N,GND*%
X137692025Y-129867202D03*
%TO.P,CART1,43*%
X135152025Y-129867202D03*
%TO.P,CART1,45*%
%TO.N,+5V*%
X132612025Y-129867202D03*
%TO.P,CART1,47*%
X130072025Y-129867202D03*
%TO.P,CART1,49*%
%TO.N,SOUNDIN*%
X127532025Y-129867202D03*
%TD*%
D11*
%TO.P,CONN1,1*%
%TO.N,/CS1*%
X188492000Y-104000000D03*
%TO.P,CONN1,2*%
%TO.N,/CS2*%
X188492000Y-106540000D03*
%TO.P,CONN1,3*%
%TO.N,/CS12*%
X185952000Y-104000000D03*
%TO.P,CONN1,4*%
%TO.N,/SLTSL*%
X185952000Y-106540000D03*
%TO.P,CONN1,5*%
%TO.N,RSV*%
X183412000Y-104000000D03*
%TO.P,CONN1,6*%
%TO.N,/RFSH*%
X183412000Y-106540000D03*
%TO.P,CONN1,7*%
%TO.N,/WAIT*%
X180872000Y-104000000D03*
%TO.P,CONN1,8*%
%TO.N,/INT*%
X180872000Y-106540000D03*
%TO.P,CONN1,9*%
%TO.N,/M1*%
X178332000Y-104000000D03*
%TO.P,CONN1,10*%
%TO.N,/BUSDIR*%
X178332000Y-106540000D03*
%TO.P,CONN1,11*%
%TO.N,/IORQ*%
X175792000Y-104000000D03*
%TO.P,CONN1,12*%
%TO.N,/MERQ*%
X175792000Y-106540000D03*
%TO.P,CONN1,13*%
%TO.N,/WR*%
X173252000Y-104000000D03*
%TO.P,CONN1,14*%
%TO.N,/RD*%
X173252000Y-106540000D03*
%TO.P,CONN1,15*%
%TO.N,/RESET*%
X170712000Y-104000000D03*
%TO.P,CONN1,16*%
%TO.N,RSV*%
X170712000Y-106540000D03*
%TO.P,CONN1,17*%
%TO.N,A9*%
X168172000Y-104000000D03*
%TO.P,CONN1,18*%
%TO.N,A15*%
X168172000Y-106540000D03*
%TO.P,CONN1,19*%
%TO.N,A11*%
X165632000Y-104000000D03*
%TO.P,CONN1,20*%
%TO.N,A10*%
X165632000Y-106540000D03*
%TO.P,CONN1,21*%
%TO.N,A7*%
X163092000Y-104000000D03*
%TO.P,CONN1,22*%
%TO.N,A6*%
X163092000Y-106540000D03*
%TO.P,CONN1,23*%
%TO.N,A12*%
X160552000Y-104000000D03*
%TO.P,CONN1,24*%
%TO.N,A8*%
X160552000Y-106540000D03*
%TO.P,CONN1,25*%
%TO.N,A14*%
X158012000Y-104000000D03*
%TO.P,CONN1,26*%
%TO.N,A13*%
X158012000Y-106540000D03*
%TO.P,CONN1,27*%
%TO.N,A1*%
X155472000Y-104000000D03*
%TO.P,CONN1,28*%
%TO.N,A0*%
X155472000Y-106540000D03*
%TO.P,CONN1,29*%
%TO.N,A3*%
X152932000Y-104000000D03*
%TO.P,CONN1,30*%
%TO.N,A2*%
X152932000Y-106540000D03*
%TO.P,CONN1,31*%
%TO.N,A5*%
X150392000Y-104000000D03*
%TO.P,CONN1,32*%
%TO.N,A4*%
X150392000Y-106540000D03*
%TO.P,CONN1,33*%
%TO.N,D1*%
X147852000Y-104000000D03*
%TO.P,CONN1,34*%
%TO.N,D0*%
X147852000Y-106540000D03*
%TO.P,CONN1,35*%
%TO.N,D3*%
X145312000Y-104000000D03*
%TO.P,CONN1,36*%
%TO.N,D2*%
X145312000Y-106540000D03*
%TO.P,CONN1,37*%
%TO.N,D5*%
X142772000Y-104000000D03*
%TO.P,CONN1,38*%
%TO.N,D4*%
X142772000Y-106540000D03*
%TO.P,CONN1,39*%
%TO.N,D7*%
X140232000Y-104000000D03*
%TO.P,CONN1,40*%
%TO.N,D6*%
X140232000Y-106540000D03*
%TO.P,CONN1,41*%
%TO.N,GND*%
X137692000Y-104000000D03*
%TO.P,CONN1,42*%
%TO.N,CLOCK*%
X137692000Y-106540000D03*
%TO.P,CONN1,43*%
%TO.N,GND*%
X135152000Y-104000000D03*
%TO.P,CONN1,44*%
%TO.N,SW*%
X135152000Y-106540000D03*
%TO.P,CONN1,45*%
%TO.N,+5V*%
X132612000Y-104000000D03*
%TO.P,CONN1,46*%
%TO.N,SW*%
X132612000Y-106540000D03*
%TO.P,CONN1,47*%
%TO.N,+5V*%
X130072000Y-104000000D03*
%TO.P,CONN1,48*%
%TO.N,+12V*%
X130072000Y-106540000D03*
%TO.P,CONN1,49*%
%TO.N,SOUNDIN*%
X127532000Y-104000000D03*
D12*
%TO.P,CONN1,50*%
%TO.N,-12V*%
X127532000Y-106540000D03*
%TD*%
D13*
%TO.N,/SLTSL*%
X186506600Y-124348600D03*
%TD*%
D14*
%TO.N,RSV*%
X183412000Y-103770000D02*
X183412000Y-104921700D01*
X183412000Y-104921700D02*
X183699900Y-104921700D01*
X183699900Y-104921700D02*
X184574400Y-105796200D01*
X183412000Y-108300000D02*
X183412000Y-129867200D01*
X184574400Y-107137600D02*
X183412000Y-108300000D01*
X184574400Y-105796200D02*
X184574400Y-107137600D01*
%TO.N,+5V*%
X132612000Y-103770000D02*
X132612000Y-104921700D01*
X130360000Y-104921700D02*
X131223700Y-105785400D01*
X132612000Y-129867200D02*
X132612000Y-125565500D01*
X130072000Y-117352000D02*
X130072000Y-129867200D01*
X132899900Y-104921700D02*
X133802600Y-105824400D01*
X133802600Y-105824400D02*
X133802600Y-124374900D01*
X130072000Y-103770000D02*
X130072000Y-104921700D01*
X131223700Y-109144100D02*
X132857800Y-110778200D01*
X132612000Y-104921700D02*
X132899900Y-104921700D01*
X133802600Y-124374900D02*
X132612000Y-125565500D01*
X130072000Y-104921700D02*
X130360000Y-104921700D01*
X132857800Y-110778200D02*
X132857800Y-114566200D01*
X131223700Y-105785400D02*
X131223700Y-109144100D01*
X132857800Y-114566200D02*
X130072000Y-117352000D01*
%TO.N,D7*%
X140232000Y-129867200D02*
X140232000Y-125565500D01*
X140500500Y-104921700D02*
X140232000Y-104921700D01*
X141393300Y-105814500D02*
X140500500Y-104921700D01*
X140232000Y-103770000D02*
X140232000Y-104921700D01*
X141393300Y-124404200D02*
X141393300Y-105814500D01*
X140232000Y-125565500D02*
X141393300Y-124404200D01*
%TO.N,D5*%
X142772000Y-104921700D02*
X143059900Y-104921700D01*
X142772000Y-103770000D02*
X142772000Y-104921700D01*
X143059900Y-104921700D02*
X143929300Y-105791100D01*
X143929300Y-105791100D02*
X143929300Y-124408200D01*
X143929300Y-124408200D02*
X142772000Y-125565500D01*
X142772000Y-129867200D02*
X142772000Y-125565500D01*
%TO.N,D3*%
X145599900Y-104921700D02*
X146502600Y-105824400D01*
X145312000Y-103770000D02*
X145312000Y-104921700D01*
X145312000Y-129867200D02*
X145312000Y-125565500D01*
X145312000Y-104921700D02*
X145599900Y-104921700D01*
X146502600Y-124374900D02*
X145312000Y-125565500D01*
X146502600Y-105824400D02*
X146502600Y-124374900D01*
%TO.N,D1*%
X147852000Y-129867200D02*
X147852000Y-125565500D01*
X147852000Y-104921700D02*
X148139900Y-104921700D01*
X148139900Y-104921700D02*
X149042600Y-105824400D01*
X147852000Y-103770000D02*
X147852000Y-104921700D01*
X149042600Y-105824400D02*
X149042600Y-124374900D01*
X149042600Y-124374900D02*
X147852000Y-125565500D01*
%TO.N,A5*%
X150392000Y-129867200D02*
X150392000Y-125565500D01*
X150392000Y-103770000D02*
X150392000Y-104921700D01*
X150392000Y-104921700D02*
X150679900Y-104921700D01*
X150679900Y-104921700D02*
X151582600Y-105824400D01*
X151582600Y-105824400D02*
X151582600Y-124374900D01*
X151582600Y-124374900D02*
X150392000Y-125565500D01*
%TO.N,A3*%
X153200500Y-104921700D02*
X152932000Y-104921700D01*
X154093300Y-105814500D02*
X153200500Y-104921700D01*
X154093300Y-124404200D02*
X154093300Y-105814500D01*
X152932000Y-125565500D02*
X154093300Y-124404200D01*
X152932000Y-103770000D02*
X152932000Y-104921700D01*
X152932000Y-129867200D02*
X152932000Y-125565500D01*
%TO.N,A1*%
X155740500Y-104921700D02*
X156633300Y-105814500D01*
X155472000Y-103770000D02*
X155472000Y-104921700D01*
X155472000Y-104921700D02*
X155740500Y-104921700D01*
X156633300Y-105814500D02*
X156633300Y-124404200D01*
X156633300Y-124404200D02*
X155472000Y-125565500D01*
X155472000Y-129867200D02*
X155472000Y-125565500D01*
%TO.N,A14*%
X158012000Y-129867200D02*
X158012000Y-125565500D01*
X159173300Y-105814500D02*
X159173300Y-124404200D01*
X158280500Y-104921700D02*
X159173300Y-105814500D01*
X159173300Y-124404200D02*
X158012000Y-125565500D01*
X158012000Y-103770000D02*
X158012000Y-104921700D01*
X158012000Y-104921700D02*
X158280500Y-104921700D01*
%TO.N,A12*%
X161709300Y-124408200D02*
X160552000Y-125565500D01*
X160839900Y-104921700D02*
X161709300Y-105791100D01*
X161709300Y-105791100D02*
X161709300Y-124408200D01*
X160552000Y-104921700D02*
X160839900Y-104921700D01*
X160552000Y-129867200D02*
X160552000Y-125565500D01*
X160552000Y-103770000D02*
X160552000Y-104921700D01*
%TO.N,A7*%
X163379900Y-104921700D02*
X164282600Y-105824400D01*
X163092000Y-129867200D02*
X163092000Y-125565500D01*
X164282600Y-105824400D02*
X164282600Y-124374900D01*
X163092000Y-103770000D02*
X163092000Y-104921700D01*
X164282600Y-124374900D02*
X163092000Y-125565500D01*
X163092000Y-104921700D02*
X163379900Y-104921700D01*
%TO.N,A11*%
X166822600Y-124374900D02*
X165632000Y-125565500D01*
X165632000Y-129867200D02*
X165632000Y-125565500D01*
X166822600Y-105824400D02*
X166822600Y-124374900D01*
X165632000Y-103770000D02*
X165632000Y-104921700D01*
X165919900Y-104921700D02*
X166822600Y-105824400D01*
X165632000Y-104921700D02*
X165919900Y-104921700D01*
%TO.N,A9*%
X168172000Y-103770000D02*
X168172000Y-104921700D01*
X169362600Y-124374900D02*
X168172000Y-125565500D01*
X168172000Y-129867200D02*
X168172000Y-125565500D01*
X168172000Y-104921700D02*
X168459900Y-104921700D01*
X169362600Y-105824400D02*
X169362600Y-124374900D01*
X168459900Y-104921700D02*
X169362600Y-105824400D01*
%TO.N,/CS12*%
X190268500Y-110506700D02*
X190268500Y-121467300D01*
X187103700Y-107341900D02*
X190268500Y-110506700D01*
X187103700Y-105785400D02*
X187103700Y-107341900D01*
X185952000Y-129867200D02*
X185952000Y-125565500D01*
X186240000Y-104921700D02*
X187103700Y-105785400D01*
X190268500Y-121467300D02*
X186170300Y-125565500D01*
X185952000Y-103770000D02*
X185952000Y-104921700D01*
X185952000Y-104921700D02*
X186240000Y-104921700D01*
X186170300Y-125565500D02*
X185952000Y-125565500D01*
%TO.N,/CS1*%
X188492000Y-103770000D02*
X188492000Y-104921700D01*
X188779900Y-104921700D02*
X188492000Y-104921700D01*
X188492000Y-129867200D02*
X188492000Y-125565500D01*
X188492000Y-125565500D02*
X190695800Y-123361700D01*
X190695800Y-106837600D02*
X188779900Y-104921700D01*
X190695800Y-123361700D02*
X190695800Y-106837600D01*
%TO.N,/WAIT*%
X182062600Y-124374900D02*
X180872000Y-125565500D01*
X180872000Y-103770000D02*
X180872000Y-104921700D01*
X180872000Y-129867200D02*
X180872000Y-125565500D01*
X181159900Y-104921700D02*
X182062600Y-105824400D01*
X182062600Y-105824400D02*
X182062600Y-124374900D01*
X180872000Y-104921700D02*
X181159900Y-104921700D01*
%TO.N,/M1*%
X179489300Y-105791100D02*
X179489300Y-124408200D01*
X178332000Y-103770000D02*
X178332000Y-104921700D01*
X178332000Y-104921700D02*
X178619900Y-104921700D01*
X178332000Y-129867200D02*
X178332000Y-125565500D01*
X179489300Y-124408200D02*
X178332000Y-125565500D01*
X178619900Y-104921700D02*
X179489300Y-105791100D01*
%TO.N,/IORQ*%
X176060500Y-104921700D02*
X175792000Y-104921700D01*
X175792000Y-103770000D02*
X175792000Y-104921700D01*
X176953300Y-124404200D02*
X176953300Y-105814500D01*
X175792000Y-125565500D02*
X176953300Y-124404200D01*
X175792000Y-129867200D02*
X175792000Y-125565500D01*
X176953300Y-105814500D02*
X176060500Y-104921700D01*
%TO.N,/WR*%
X174413300Y-124404200D02*
X174413300Y-105814500D01*
X173252000Y-103770000D02*
X173252000Y-104921700D01*
X173252000Y-129867200D02*
X173252000Y-125565500D01*
X174413300Y-105814500D02*
X173520500Y-104921700D01*
X173520500Y-104921700D02*
X173252000Y-104921700D01*
X173252000Y-125565500D02*
X174413300Y-124404200D01*
%TO.N,/RESET*%
X171873300Y-124404200D02*
X170712000Y-125565500D01*
X170712000Y-129867200D02*
X170712000Y-125565500D01*
X170712000Y-104921700D02*
X170980500Y-104921700D01*
X170980500Y-104921700D02*
X171873300Y-105814500D01*
X171873300Y-105814500D02*
X171873300Y-124404200D01*
X170712000Y-103770000D02*
X170712000Y-104921700D01*
%TO.N,SOUNDIN*%
X126740200Y-104921700D02*
X126350600Y-105311300D01*
X126350600Y-124384100D02*
X127532000Y-125565500D01*
X126350600Y-105311300D02*
X126350600Y-124384100D01*
X127532000Y-104921700D02*
X126740200Y-104921700D01*
X127532000Y-129867200D02*
X127532000Y-125565500D01*
X127532000Y-103770000D02*
X127532000Y-104921700D01*
%TO.N,/SLTSL*%
X185952000Y-113564300D02*
X189866800Y-117479100D01*
X189866800Y-120988400D02*
X186506600Y-124348600D01*
X185952000Y-106310000D02*
X185952000Y-113564300D01*
X189866800Y-117479100D02*
X189866800Y-120988400D01*
%TO.N,GND*%
X135152000Y-129867200D02*
X135152000Y-125565500D01*
X137692000Y-103770000D02*
X137692000Y-104921700D01*
X138853300Y-105814500D02*
X137960500Y-104921700D01*
X136342600Y-124374900D02*
X135152000Y-125565500D01*
X135152000Y-103770000D02*
X135152000Y-104921700D01*
X135439900Y-104921700D02*
X136342600Y-105824400D01*
X138853300Y-124404200D02*
X138853300Y-105814500D01*
X137692000Y-129867200D02*
X137692000Y-125565500D01*
X137960500Y-104921700D02*
X137692000Y-104921700D01*
X136342600Y-105824400D02*
X136342600Y-124374900D01*
X137692000Y-125565500D02*
X138853300Y-124404200D01*
X135152000Y-104921700D02*
X135439900Y-104921700D01*
%TD*%
M02*
