%TF.GenerationSoftware,KiCad,Pcbnew,8.0.2-1*%
%TF.CreationDate,2024-07-05T22:00:38-03:00*%
%TF.ProjectId,msx-simple-proto,6d73782d-7369-46d7-906c-652d70726f74,0.1*%
%TF.SameCoordinates,Original*%
%TF.FileFunction,Copper,L1,Top*%
%TF.FilePolarity,Positive*%
%FSLAX46Y46*%
G04 Gerber Fmt 4.6, Leading zero omitted, Abs format (unit mm)*
G04 Created by KiCad (PCBNEW 8.0.2-1) date 2024-07-05 22:00:38*
%MOMM*%
%LPD*%
G01*
G04 APERTURE LIST*
%TA.AperFunction,ConnectorPad*%
%ADD10R,1.500000X8.000000*%
%TD*%
%TA.AperFunction,ConnectorPad*%
%ADD11R,1.500000X7.000000*%
%TD*%
%TA.AperFunction,ComponentPad*%
%ADD12O,1.700000X1.700000*%
%TD*%
%TA.AperFunction,ComponentPad*%
%ADD13R,1.700000X1.700000*%
%TD*%
%TA.AperFunction,ViaPad*%
%ADD14C,0.600000*%
%TD*%
%TA.AperFunction,Conductor*%
%ADD15C,0.200000*%
%TD*%
G04 APERTURE END LIST*
D10*
%TO.P,CART1,2*%
%TO.N,/CS2*%
X188492025Y-129867202D03*
%TO.P,CART1,4*%
%TO.N,/SLTSL*%
X185952025Y-129867202D03*
%TO.P,CART1,6*%
%TO.N,/RFSH*%
X183412025Y-129867202D03*
%TO.P,CART1,8*%
%TO.N,/INT*%
X180872025Y-129867202D03*
%TO.P,CART1,10*%
%TO.N,/BUSDIR*%
X178332025Y-129867202D03*
%TO.P,CART1,12*%
%TO.N,/MERQ*%
X175792025Y-129867202D03*
%TO.P,CART1,14*%
%TO.N,/RD*%
X173252025Y-129867202D03*
%TO.P,CART1,16*%
%TO.N,RSV*%
X170712025Y-129867202D03*
%TO.P,CART1,18*%
%TO.N,A15*%
X168172025Y-129867202D03*
%TO.P,CART1,20*%
%TO.N,A10*%
X165632025Y-129867202D03*
%TO.P,CART1,22*%
%TO.N,A6*%
X163092025Y-129867202D03*
%TO.P,CART1,24*%
%TO.N,A8*%
X160552025Y-129867202D03*
%TO.P,CART1,26*%
%TO.N,A13*%
X158012025Y-129867202D03*
%TO.P,CART1,28*%
%TO.N,A0*%
X155472025Y-129867202D03*
%TO.P,CART1,30*%
%TO.N,A2*%
X152932025Y-129867202D03*
%TO.P,CART1,32*%
%TO.N,A4*%
X150392025Y-129867202D03*
%TO.P,CART1,34*%
%TO.N,D0*%
X147852025Y-129867202D03*
%TO.P,CART1,36*%
%TO.N,D2*%
X145312025Y-129867202D03*
%TO.P,CART1,38*%
%TO.N,D4*%
X142772025Y-129867202D03*
%TO.P,CART1,40*%
%TO.N,D6*%
X140232025Y-129867202D03*
%TO.P,CART1,42*%
%TO.N,CLOCK*%
X137692025Y-129867202D03*
D11*
%TO.P,CART1,44*%
%TO.N,SW*%
X135146533Y-129359850D03*
D10*
%TO.P,CART1,46*%
X132612025Y-129867202D03*
%TO.P,CART1,48*%
%TO.N,+12V*%
X130072025Y-129867202D03*
%TO.P,CART1,50*%
%TO.N,-12V*%
X127532025Y-129867202D03*
%TD*%
D12*
%TO.P,CONN1,1*%
%TO.N,/CS1*%
X188492000Y-104000000D03*
%TO.P,CONN1,2*%
%TO.N,/CS2*%
X188492000Y-106540000D03*
%TO.P,CONN1,3*%
%TO.N,/CS12*%
X185952000Y-104000000D03*
%TO.P,CONN1,4*%
%TO.N,/SLTSL*%
X185952000Y-106540000D03*
%TO.P,CONN1,5*%
%TO.N,RSV*%
X183412000Y-104000000D03*
%TO.P,CONN1,6*%
%TO.N,/RFSH*%
X183412000Y-106540000D03*
%TO.P,CONN1,7*%
%TO.N,/WAIT*%
X180872000Y-104000000D03*
%TO.P,CONN1,8*%
%TO.N,/INT*%
X180872000Y-106540000D03*
%TO.P,CONN1,9*%
%TO.N,/M1*%
X178332000Y-104000000D03*
%TO.P,CONN1,10*%
%TO.N,/BUSDIR*%
X178332000Y-106540000D03*
%TO.P,CONN1,11*%
%TO.N,/IORQ*%
X175792000Y-104000000D03*
%TO.P,CONN1,12*%
%TO.N,/MERQ*%
X175792000Y-106540000D03*
%TO.P,CONN1,13*%
%TO.N,/WR*%
X173252000Y-104000000D03*
%TO.P,CONN1,14*%
%TO.N,/RD*%
X173252000Y-106540000D03*
%TO.P,CONN1,15*%
%TO.N,/RESET*%
X170712000Y-104000000D03*
%TO.P,CONN1,16*%
%TO.N,RSV*%
X170712000Y-106540000D03*
%TO.P,CONN1,17*%
%TO.N,A9*%
X168172000Y-104000000D03*
%TO.P,CONN1,18*%
%TO.N,A15*%
X168172000Y-106540000D03*
%TO.P,CONN1,19*%
%TO.N,A11*%
X165632000Y-104000000D03*
%TO.P,CONN1,20*%
%TO.N,A10*%
X165632000Y-106540000D03*
%TO.P,CONN1,21*%
%TO.N,A7*%
X163092000Y-104000000D03*
%TO.P,CONN1,22*%
%TO.N,A6*%
X163092000Y-106540000D03*
%TO.P,CONN1,23*%
%TO.N,A12*%
X160552000Y-104000000D03*
%TO.P,CONN1,24*%
%TO.N,A8*%
X160552000Y-106540000D03*
%TO.P,CONN1,25*%
%TO.N,A14*%
X158012000Y-104000000D03*
%TO.P,CONN1,26*%
%TO.N,A13*%
X158012000Y-106540000D03*
%TO.P,CONN1,27*%
%TO.N,A1*%
X155472000Y-104000000D03*
%TO.P,CONN1,28*%
%TO.N,A0*%
X155472000Y-106540000D03*
%TO.P,CONN1,29*%
%TO.N,A3*%
X152932000Y-104000000D03*
%TO.P,CONN1,30*%
%TO.N,A2*%
X152932000Y-106540000D03*
%TO.P,CONN1,31*%
%TO.N,A5*%
X150392000Y-104000000D03*
%TO.P,CONN1,32*%
%TO.N,A4*%
X150392000Y-106540000D03*
%TO.P,CONN1,33*%
%TO.N,D1*%
X147852000Y-104000000D03*
%TO.P,CONN1,34*%
%TO.N,D0*%
X147852000Y-106540000D03*
%TO.P,CONN1,35*%
%TO.N,D3*%
X145312000Y-104000000D03*
%TO.P,CONN1,36*%
%TO.N,D2*%
X145312000Y-106540000D03*
%TO.P,CONN1,37*%
%TO.N,D5*%
X142772000Y-104000000D03*
%TO.P,CONN1,38*%
%TO.N,D4*%
X142772000Y-106540000D03*
%TO.P,CONN1,39*%
%TO.N,D7*%
X140232000Y-104000000D03*
%TO.P,CONN1,40*%
%TO.N,D6*%
X140232000Y-106540000D03*
%TO.P,CONN1,41*%
%TO.N,GND*%
X137692000Y-104000000D03*
%TO.P,CONN1,42*%
%TO.N,CLOCK*%
X137692000Y-106540000D03*
%TO.P,CONN1,43*%
%TO.N,GND*%
X135152000Y-104000000D03*
%TO.P,CONN1,44*%
%TO.N,SW*%
X135152000Y-106540000D03*
%TO.P,CONN1,45*%
%TO.N,+5V*%
X132612000Y-104000000D03*
%TO.P,CONN1,46*%
%TO.N,SW*%
X132612000Y-106540000D03*
%TO.P,CONN1,47*%
%TO.N,+5V*%
X130072000Y-104000000D03*
%TO.P,CONN1,48*%
%TO.N,+12V*%
X130072000Y-106540000D03*
%TO.P,CONN1,49*%
%TO.N,SOUNDIN*%
X127532000Y-104000000D03*
D13*
%TO.P,CONN1,50*%
%TO.N,-12V*%
X127532000Y-106540000D03*
%TD*%
D14*
%TO.N,/SLTSL*%
X186506600Y-124348600D03*
%TD*%
D15*
%TO.N,-12V*%
X127223800Y-107769900D02*
X127223800Y-125257300D01*
X127532000Y-129867200D02*
X127532000Y-125565500D01*
X127532000Y-106310000D02*
X127532000Y-107461700D01*
X127532000Y-107461700D02*
X127223800Y-107769900D01*
X127223800Y-125257300D02*
X127532000Y-125565500D01*
%TO.N,+12V*%
X132879100Y-116602100D02*
X130072000Y-119409200D01*
X132879100Y-110268800D02*
X132879100Y-116602100D01*
X130072000Y-107461700D02*
X132879100Y-110268800D01*
X130072000Y-106310000D02*
X130072000Y-107461700D01*
X130072000Y-119409200D02*
X130072000Y-129867200D01*
%TO.N,RSV*%
X170712000Y-106310000D02*
X170712000Y-129867200D01*
%TO.N,D6*%
X140232000Y-106310000D02*
X140232000Y-129867200D01*
%TO.N,D4*%
X142772000Y-106310000D02*
X142772000Y-129867200D01*
%TO.N,D2*%
X145312000Y-106310000D02*
X145312000Y-129867200D01*
%TO.N,A4*%
X150392000Y-106310000D02*
X150392000Y-129867200D01*
%TO.N,D0*%
X147852000Y-106310000D02*
X147852000Y-129867200D01*
%TO.N,A2*%
X152932000Y-106310000D02*
X152932000Y-129867200D01*
%TO.N,A0*%
X155472000Y-106310000D02*
X155472000Y-129867200D01*
%TO.N,A13*%
X158012000Y-106310000D02*
X158012000Y-129867200D01*
%TO.N,A8*%
X160552000Y-106310000D02*
X160552000Y-129867200D01*
%TO.N,A6*%
X163092000Y-106310000D02*
X163092000Y-129867200D01*
%TO.N,A10*%
X165632000Y-106310000D02*
X165632000Y-129867200D01*
%TO.N,A15*%
X168172000Y-106310000D02*
X168172000Y-129867200D01*
%TO.N,CLOCK*%
X137692000Y-106310000D02*
X137692000Y-129867200D01*
%TO.N,/RD*%
X173252000Y-106310000D02*
X173252000Y-129867200D01*
%TO.N,/MERQ*%
X175792000Y-106310000D02*
X175792000Y-129867200D01*
%TO.N,/BUSDIR*%
X178332000Y-106310000D02*
X178332000Y-129867200D01*
%TO.N,/INT*%
X180872000Y-106310000D02*
X180872000Y-129867200D01*
%TO.N,/RFSH*%
X183412000Y-106310000D02*
X183412000Y-129867200D01*
%TO.N,/SLTSL*%
X185952000Y-129867200D02*
X185952000Y-125565500D01*
X186506600Y-125010900D02*
X185952000Y-125565500D01*
X186506600Y-124348600D02*
X186506600Y-125010900D01*
%TO.N,/CS2*%
X189884800Y-124172700D02*
X188492000Y-125565500D01*
X188492000Y-107461700D02*
X189884800Y-108854500D01*
X189884800Y-108854500D02*
X189884800Y-124172700D01*
X188492000Y-129867200D02*
X188492000Y-125565500D01*
X188492000Y-106310000D02*
X188492000Y-107461700D01*
%TO.N,SW*%
X135147000Y-125147000D02*
X134500000Y-124500000D01*
X132612000Y-124888000D02*
X132612000Y-129867000D01*
X135147000Y-129360000D02*
X135147000Y-127837600D01*
X132612000Y-129867000D02*
X132612000Y-129867200D01*
X135147000Y-127837600D02*
X135147000Y-125147000D01*
X133000000Y-124500000D02*
X132612000Y-124888000D01*
X135146500Y-127838100D02*
X135146500Y-129359800D01*
X135147000Y-127837600D02*
X135146500Y-127838100D01*
X134500000Y-124500000D02*
X133000000Y-124500000D01*
%TD*%
M02*
